<svg width="106" height="60" viewBox="0 0 106 60" fill="none" xmlns="http://www.w3.org/2000/svg">
<path d="M26.7569 44.7349C27.0006 45.011 27.1304 45.3569 27.1236 45.7118C27.136 45.9434 27.0914 46.1745 26.993 46.3881C26.8947 46.6018 26.7451 46.7924 26.5554 46.9459C26.082 47.2732 25.4956 47.4333 24.9037 47.3966H22V41.2051H24.8442C25.4057 41.1709 25.9626 41.3163 26.42 41.6165C26.6036 41.7572 26.7491 41.9351 26.8448 42.1362C26.9406 42.3372 26.984 42.5559 26.9716 42.7749C26.9883 43.1164 26.8712 43.4522 26.6413 43.7216C26.4206 43.9676 26.1156 44.1382 25.7758 44.2056C26.161 44.2699 26.5087 44.4575 26.7569 44.7349ZM23.3511 43.8003H24.5667C24.843 43.819 25.1174 43.7459 25.3397 43.5946C25.431 43.5188 25.502 43.4249 25.5473 43.32C25.5925 43.2151 25.6108 43.1021 25.6007 42.9896C25.6093 42.8776 25.5906 42.7653 25.5461 42.6607C25.5015 42.5561 25.4322 42.4618 25.343 42.3847C25.1141 42.2291 24.8312 42.1549 24.5469 42.176H23.3511V43.8003ZM25.4587 46.1746C25.5562 46.0971 25.6329 46 25.6828 45.8908C25.7326 45.7817 25.7543 45.6635 25.7461 45.5455C25.7535 45.4261 25.7309 45.3067 25.6799 45.1965C25.6289 45.0864 25.551 44.9885 25.4521 44.9103C25.2142 44.7488 24.9217 44.6696 24.6262 44.6865H23.3511V46.3894H24.6427C24.9334 46.4047 25.2212 46.329 25.4587 46.1746Z" fill="#AFB1B8"/>
<path d="M32.5709 47.3973L30.9886 44.9776H30.394V47.3973H29.033V41.2058H31.6096C32.2591 41.1643 32.9012 41.3527 33.4034 41.7321C33.7635 42.0682 33.9808 42.511 34.0159 42.9807C34.051 43.4504 33.9018 43.9162 33.595 44.294C33.2771 44.6275 32.8428 44.8498 32.3661 44.9231L34.0508 47.3973H32.5709ZM30.394 44.1337H31.5072C32.2802 44.1337 32.6667 43.8212 32.6667 43.1961C32.6746 43.0684 32.6534 42.9407 32.6045 42.8209C32.5556 42.7011 32.48 42.592 32.3826 42.5004C32.1383 42.3144 31.8237 42.2242 31.5072 42.2494H30.3807L30.394 44.1337Z" fill="#AFB1B8"/>
<path d="M40.0101 46.1502H37.298L36.819 47.3963H35.392L37.8827 41.2744H39.4254L41.9063 47.3963H40.4792L40.0101 46.1502ZM39.6467 45.2125L38.6557 42.5992L37.6647 45.2125H39.6467Z" fill="#AFB1B8"/>
<path d="M49.3225 47.3965H47.9714L44.9421 43.1862V47.3965H43.5944V41.2051H44.9421L47.9714 45.4396V41.2051H49.3225V47.3965Z" fill="#AFB1B8"/>
<path d="M57.0326 45.9148C56.7532 46.3822 56.3276 46.7625 55.8103 47.0067C55.2222 47.2786 54.5695 47.4127 53.9109 47.3968H51.506V41.2054H53.9109C54.5684 41.1896 55.2202 41.3204 55.8103 41.5865C56.3275 41.8251 56.7536 42.2016 57.0326 42.6663C57.3107 43.1698 57.4556 43.7262 57.4556 44.2905C57.4556 44.8548 57.3107 45.4112 57.0326 45.9148ZM55.4866 45.7665C55.8722 45.3552 56.0842 44.8311 56.0842 44.289C56.0842 43.7469 55.8722 43.2228 55.4866 42.8115C55.0205 42.4389 54.4127 42.2498 53.7952 42.2852H52.8571V46.2928H53.7952C54.4127 46.3282 55.0205 46.1391 55.4866 45.7665Z" fill="#AFB1B8"/>
<path d="M40.8558 6.7666C40.8558 6.7666 58.2945 12.7947 57.9245 21.5178V36.2721C57.9245 36.2721 40.4991 30.2409 40.8624 21.5178L40.8558 6.7666Z" fill="#AFB1B8"/>
<path d="M73.4603 32.8181C76.7538 30.7428 80.5633 29.4574 84.5399 29.0796V24.4609C79.9579 26.0779 76.0709 29.0098 73.4603 32.8181Z" fill="#AFB1B8"/>
<path d="M71.4816 34.2094C74.1773 29.2395 78.8505 25.4045 84.54 23.493V10.1846C84.54 10.1846 59.705 18.7716 60.2303 31.1938V52.2C60.2303 52.2 61.3369 51.8159 63.0778 51.096C63.0778 50.4246 63.0778 49.747 63.1571 49.0665C63.6711 43.2995 66.6654 37.9554 71.4816 34.2094Z" fill="#AFB1B8"/>
<path d="M69.1197 42.013C69.2502 40.5561 69.5413 39.1151 69.9885 37.7119C66.9896 40.947 65.1734 44.9613 64.7956 49.1905C64.7592 49.5897 64.7394 49.989 64.7295 50.4003C66.14 49.7803 67.7818 49.006 69.5062 48.0956C69.0662 46.0947 68.936 44.0471 69.1197 42.013Z" fill="#AFB1B8"/>
<path d="M70.1074 42.0886C69.9421 43.9289 70.0454 45.7812 70.4146 47.5965C77.1998 43.8792 84.8241 38.1354 84.5301 31.1938V30.5889C79.6823 31.0855 75.1468 33.0259 71.6204 36.1119C70.7947 38.0243 70.2848 40.0386 70.1074 42.0886Z" fill="#AFB1B8"/>
</svg>
