<svg width="106" height="60" viewBox="0 0 106 60" fill="none" xmlns="http://www.w3.org/2000/svg">
<path d="M36.4063 49.1018C36.4222 49.1022 36.4379 49.1053 36.4524 49.111C36.4669 49.1167 36.4799 49.1248 36.4908 49.135L36.7089 49.3435C36.5396 49.5122 36.3304 49.6472 36.0955 49.7391C35.8204 49.8395 35.5239 49.8879 35.2257 49.8813C34.9455 49.8863 34.6671 49.8411 34.4078 49.7486C34.1739 49.6636 33.9638 49.536 33.7916 49.3743C33.6159 49.2065 33.4805 49.01 33.3935 48.7962C33.2982 48.5578 33.2512 48.3069 33.2545 48.0546C33.2506 47.8007 33.3015 47.5483 33.4044 47.3107C33.4997 47.0955 33.6433 46.8989 33.827 46.7326C34.0132 46.5694 34.2359 46.4412 34.4814 46.3558C34.7499 46.2654 35.0359 46.2203 35.3239 46.2232C35.5914 46.2175 35.8575 46.2586 36.1064 46.344C36.3223 46.4254 36.5206 46.5384 36.6926 46.6781L36.5099 46.9008C36.4973 46.9165 36.4816 46.9301 36.4635 46.941C36.442 46.9539 36.4159 46.9598 36.3899 46.9576C36.3616 46.9559 36.3343 46.9478 36.3109 46.9339L36.2127 46.8747L36.0764 46.7989C36.0175 46.7707 35.9565 46.7462 35.8937 46.7255C35.8128 46.7003 35.7299 46.6805 35.6456 46.6662C35.5386 46.6491 35.4299 46.6412 35.3211 46.6425C35.1138 46.6403 34.908 46.6741 34.7159 46.742C34.5367 46.805 34.375 46.9003 34.2415 47.0216C34.1055 47.1507 34.0007 47.3021 33.9334 47.467C33.8566 47.6556 33.8187 47.8545 33.8216 48.0546C33.8183 48.2578 33.8561 48.4598 33.9334 48.6516C33.9999 48.8151 34.1027 48.9656 34.236 49.0947C34.3609 49.215 34.5157 49.309 34.6886 49.3695C34.8666 49.4336 35.0576 49.4659 35.2503 49.4643C35.3615 49.4658 35.4728 49.4594 35.5829 49.4453C35.7627 49.4263 35.9351 49.372 36.0873 49.2866C36.1636 49.2429 36.2356 49.1937 36.3027 49.1397C36.3307 49.1165 36.3676 49.103 36.4063 49.1018Z" fill="#AFB1B8"/>
<path d="M42.7044 48.0537C42.7078 48.3051 42.6579 48.5548 42.5572 48.7905C42.4684 49.0042 42.3284 49.1992 42.1465 49.3625C41.9646 49.5259 41.745 49.6539 41.5021 49.7381C40.9683 49.915 40.3782 49.915 39.8444 49.7381C39.603 49.6526 39.3848 49.5243 39.2037 49.3614C39.0219 49.1951 38.8809 48.9984 38.7893 48.7834C38.5929 48.3062 38.5929 47.7846 38.7893 47.3074C38.8823 47.0922 39.0231 46.895 39.2037 46.727C39.3864 46.5693 39.6045 46.4459 39.8444 46.3646C40.3775 46.1845 40.969 46.1845 41.5021 46.3646C41.7443 46.45 41.9634 46.5783 42.1455 46.7412C42.325 46.9059 42.465 47.1 42.5572 47.3122C42.6582 47.5494 42.7081 47.8008 42.7044 48.0537ZM42.1319 48.0537C42.1362 47.8526 42.1011 47.6523 42.0283 47.4614C41.9672 47.2979 41.8679 47.1471 41.7366 47.0184C41.6087 46.8967 41.4513 46.8012 41.2758 46.7389C40.8879 46.6093 40.4586 46.6093 40.0707 46.7389C39.8952 46.8012 39.7378 46.8967 39.6099 47.0184C39.4768 47.1463 39.3764 47.2973 39.3155 47.4614C39.1768 47.8471 39.1768 48.2603 39.3155 48.646C39.377 48.8098 39.4773 48.9607 39.6099 49.089C39.7379 49.2099 39.8953 49.3046 40.0707 49.3661C40.4593 49.4924 40.8872 49.4924 41.2758 49.3661C41.4512 49.3046 41.6086 49.2099 41.7366 49.089C41.8673 48.96 41.9665 48.8093 42.0283 48.646C42.1015 48.4551 42.1365 48.2548 42.1319 48.0537Z" fill="#AFB1B8"/>
<path d="M47.0013 48.6746L47.0586 48.8072C47.0804 48.7599 47.0995 48.7172 47.1213 48.6746C47.1421 48.63 47.1657 48.5865 47.1922 48.5443L48.5854 46.3437C48.6127 46.3058 48.6372 46.2821 48.6645 46.275C48.7015 46.2652 48.7403 46.2612 48.779 46.2632H49.1907V49.8424H48.7026V47.2107C48.7026 47.1775 48.7026 47.1396 48.7026 47.0994C48.7 47.0583 48.7 47.0172 48.7026 46.9762L47.3012 49.2076C47.2834 49.241 47.255 49.2692 47.2192 49.289C47.1834 49.3087 47.1418 49.3191 47.0995 49.3189H47.0204C46.9779 49.3194 46.9362 49.3091 46.9004 49.2894C46.8646 49.2696 46.8362 49.2412 46.8186 49.2076L45.3763 46.962C45.3763 47.0046 45.3763 47.0472 45.3763 47.0899C45.3763 47.1325 45.3763 47.1704 45.3763 47.2036V49.8353H44.9047V46.2632H45.3164C45.355 46.2612 45.3938 46.2652 45.4309 46.275C45.4647 46.2896 45.4916 46.3139 45.5072 46.3437L46.9304 48.5467C46.9584 48.5874 46.9821 48.6302 47.0013 48.6746Z" fill="#AFB1B8"/>
<path d="M52.2444 48.4967V49.8374H51.6991V46.2631H52.9151C53.1446 46.2592 53.3735 46.2856 53.594 46.3412C53.7705 46.3847 53.9341 46.4606 54.0739 46.5639C54.195 46.6607 54.2883 46.7807 54.3465 46.9145C54.4109 47.0603 54.4423 47.2155 54.4392 47.3716C54.4416 47.5284 54.4073 47.6839 54.3383 47.8288C54.2728 47.9659 54.1721 48.0882 54.0439 48.1864C53.904 48.294 53.7395 48.3747 53.5613 48.4233C53.349 48.4822 53.127 48.5103 52.9042 48.5062L52.2444 48.4967ZM52.2444 48.113H52.9042C53.0475 48.1146 53.1902 48.0962 53.3268 48.0585C53.4395 48.0256 53.5433 47.9732 53.6322 47.9046C53.7141 47.839 53.7775 47.758 53.8176 47.6677C53.8622 47.5722 53.8844 47.4699 53.883 47.3669C53.8893 47.2675 53.8707 47.1681 53.8283 47.0757C53.7859 46.9832 53.7208 46.8999 53.6376 46.8315C53.4293 46.6902 53.1677 46.6218 52.9042 46.6397H52.2444V48.113Z" fill="#AFB1B8"/>
<path d="M59.5731 49.8423H59.1423C59.0991 49.8437 59.0566 49.832 59.0223 49.8091C58.9914 49.7868 58.9671 49.7584 58.9514 49.7262L58.5806 48.8615H56.7185L56.334 49.7262C56.3199 49.7578 56.2964 49.7856 56.2659 49.8067C56.2312 49.831 56.1877 49.8436 56.1432 49.8423H55.7124L57.3483 46.2627H57.9154L59.5731 49.8423ZM56.8739 48.5133H58.4116L57.7627 47.0563C57.7131 46.9467 57.6721 46.8343 57.64 46.7199L57.5773 46.9071C57.5582 46.9639 57.5364 47.016 57.5173 47.0587L56.8739 48.5133Z" fill="#AFB1B8"/>
<path d="M61.9288 46.2794C61.9614 46.2949 61.9894 46.3168 62.0106 46.3433L64.3962 49.0416C64.3962 48.9989 64.3962 48.9563 64.3962 48.916C64.3962 48.8758 64.3962 48.8355 64.3962 48.7976V46.2628H64.8843V49.8423H64.6116C64.5729 49.8433 64.5345 49.836 64.4998 49.821C64.4662 49.8039 64.4365 49.7814 64.4126 49.7546L62.0297 47.0587C62.0323 47.0998 62.0323 47.1409 62.0297 47.1819C62.0297 47.2222 62.0297 47.2577 62.0297 47.2909V49.8423H61.5416V46.2628H61.8306C61.8644 46.262 61.8979 46.2676 61.9288 46.2794Z" fill="#AFB1B8"/>
<path d="M68.9031 48.4193V49.8407H68.3578V48.4193L66.8501 46.2635H67.3381C67.3802 46.2614 67.4218 46.2723 67.4554 46.2943C67.4851 46.3173 67.51 46.3446 67.529 46.3749L68.4724 47.7655C68.5105 47.8247 68.5432 47.8792 68.5705 47.9313C68.5978 47.9834 68.6196 48.0332 68.6387 48.0829L68.7096 47.9289C68.736 47.8726 68.767 47.818 68.8023 47.7655L69.732 46.3654C69.7516 46.3375 69.7754 46.312 69.8029 46.2896C69.8352 46.265 69.8772 46.2523 69.9201 46.2541H70.4136L68.9031 48.4193Z" fill="#AFB1B8"/>
<path d="M46.7314 40.2563C46.9686 40.2823 47.2086 40.3036 47.4512 40.3226C51.1301 38.8927 54.2422 36.5525 56.3987 33.5943C58.5552 30.6362 59.6603 27.1914 59.5759 23.6905L55.5216 20.168C56.346 23.8953 55.9604 27.7483 54.408 31.2961C52.8555 34.8438 50.1976 37.9462 46.7314 40.2563Z" fill="#AFB1B8"/>
<path d="M45.2837 40.0929L45.3928 40.1118C49.0966 37.81 51.9205 34.5957 53.4993 30.8845C55.078 27.1733 55.3389 23.1359 54.2483 19.2945L48.4737 14.2773C50.8094 18.4014 51.7495 23.0168 51.1848 27.5868C50.6201 32.1568 48.5737 36.4936 45.2837 40.0929Z" fill="#AFB1B8"/>
<path d="M64.868 27.8271C63.8869 31.6737 61.5042 35.1429 58.0736 37.7195C57.0717 38.4761 55.991 39.1502 54.8455 39.733C57.6389 39.0196 60.2065 37.7584 62.3503 36.0466C64.494 34.3347 66.1567 32.218 67.21 29.8596L64.868 27.8271Z" fill="#AFB1B8"/>
<path d="M63.949 27.2604L60.6146 24.3633C60.5508 27.6664 59.47 30.8944 57.4845 33.7117C55.499 36.5291 52.6813 38.833 49.3242 40.3841H49.3406C50.0887 40.3838 50.8362 40.3451 51.579 40.268C54.7164 39.1554 57.488 37.3853 59.6464 35.1156C61.8049 32.8459 63.283 30.1472 63.949 27.2604Z" fill="#AFB1B8"/>
<path d="M45.7663 12.1612L41.7883 8.7002C38.2322 9.89415 35.1738 11.9931 33.0134 14.7223C30.8529 17.4515 29.6912 20.6838 29.6801 23.9961V23.9961C29.6934 27.6562 31.1113 31.2079 33.7093 34.089C36.3073 36.9702 39.9371 39.0162 44.0241 39.9033C47.6725 36.0412 49.8086 31.269 50.1219 26.28C50.4352 21.291 48.9094 16.3452 45.7663 12.1612Z" fill="#AFB1B8"/>
<path d="M73.1401 26.7277C73.1257 22.3852 71.1339 18.2242 67.5997 15.1535C64.0656 12.0829 59.2764 10.3524 54.2784 10.3399C51.9688 10.3378 49.6789 10.7081 47.5249 11.4319L71.8805 32.593C72.7144 30.7225 73.1415 28.7337 73.1401 26.7277Z" fill="#AFB1B8"/>
</svg>
