<svg width="85" height="42" viewBox="0 0 85 42" fill="none" xmlns="http://www.w3.org/2000/svg">
<path d="M13.1462 13.1035H13.1433C10.7453 13.1035 8.80127 14.8311 8.80127 16.9622V16.9647C8.80127 19.0958 10.7453 20.8234 13.1433 20.8234H13.1462C15.5442 20.8234 17.4882 19.0958 17.4882 16.9647V16.9622C17.4882 14.8311 15.5442 13.1035 13.1462 13.1035Z" fill="#2196F3"/>
<path d="M45.195 11.8695C45.1882 8.90954 43.8623 6.07247 41.5074 3.9792C39.1525 1.88592 35.9604 0.706916 32.6297 0.700195V0.700195C29.298 0.705573 26.1045 1.88398 23.7484 3.9774C21.3922 6.07082 20.0655 8.90866 20.0587 11.8695V28.1924C20.0587 28.1924 45.1922 25.7047 45.195 11.8721V11.8695Z" fill="#2196F3"/>
<path d="M0 33.5495C0.00604098 35.6091 0.929149 37.5828 2.56761 39.0394C4.20607 40.496 6.42668 41.317 8.74418 41.3231C11.0612 41.317 13.2814 40.4963 14.9197 39.0403C16.5581 37.5843 17.4816 35.6112 17.4884 33.552V22.1943C17.4884 22.1943 0 23.9266 0 33.5495ZM8.74418 35.5844C8.2913 35.5844 7.84859 35.4651 7.47203 35.2415C7.09548 35.0179 6.80199 34.7001 6.62868 34.3282C6.45537 33.9564 6.41002 33.5472 6.49838 33.1525C6.58673 32.7577 6.80481 32.3951 7.12505 32.1105C7.44528 31.8259 7.85328 31.6321 8.29746 31.5536C8.74164 31.4751 9.20204 31.5154 9.62045 31.6694C10.0389 31.8234 10.3965 32.0843 10.6481 32.4189C10.8997 32.7535 11.034 33.147 11.034 33.5495C11.0351 33.8173 10.9767 34.0828 10.8622 34.3306C10.7476 34.5783 10.5791 34.8036 10.3664 34.9933C10.1536 35.1831 9.90081 35.3337 9.62244 35.4364C9.34406 35.5392 9.04561 35.5921 8.74418 35.5921V35.5844Z" fill="#2196F3"/>
<path d="M26.4177 34.4639H24.7302V36.207H23.8513V31.9414H26.6287V32.6533H24.7302V33.7549H26.4177V34.4639ZM30.6423 34.1709C30.6423 34.5908 30.5681 34.959 30.4197 35.2754C30.2712 35.5918 30.0583 35.8359 29.781 36.0078C29.5056 36.1797 29.1892 36.2656 28.8318 36.2656C28.4783 36.2656 28.1628 36.1807 27.8855 36.0107C27.6082 35.8408 27.3933 35.5986 27.241 35.2842C27.0886 34.9678 27.0115 34.6045 27.0095 34.1943V33.9834C27.0095 33.5635 27.0847 33.1943 27.2351 32.876C27.3875 32.5557 27.6013 32.3105 27.8767 32.1406C28.1541 31.9688 28.4705 31.8828 28.8259 31.8828C29.1814 31.8828 29.4968 31.9688 29.7722 32.1406C30.0496 32.3105 30.2634 32.5557 30.4138 32.876C30.5662 33.1943 30.6423 33.5625 30.6423 33.9805V34.1709ZM29.7517 33.9775C29.7517 33.5303 29.6716 33.1904 29.5115 32.958C29.3513 32.7256 29.1228 32.6094 28.8259 32.6094C28.531 32.6094 28.3035 32.7246 28.1433 32.9551C27.9832 33.1836 27.9021 33.5195 27.9001 33.9629V34.1709C27.9001 34.6064 27.9802 34.9443 28.1404 35.1846C28.3005 35.4248 28.531 35.5449 28.8318 35.5449C29.1267 35.5449 29.3533 35.4297 29.5115 35.1992C29.6697 34.9668 29.7498 34.6289 29.7517 34.1855V33.9775ZM33.4929 35.0879C33.4929 34.9219 33.4343 34.7949 33.3171 34.707C33.2 34.6172 32.989 34.5234 32.6843 34.4258C32.3796 34.3262 32.1384 34.2285 31.9607 34.1328C31.4763 33.8711 31.2341 33.5186 31.2341 33.0752C31.2341 32.8447 31.2986 32.6396 31.4275 32.46C31.5583 32.2783 31.7449 32.1367 31.9871 32.0352C32.2312 31.9336 32.5046 31.8828 32.8074 31.8828C33.1121 31.8828 33.3835 31.9385 33.6218 32.0498C33.8601 32.1592 34.0447 32.3145 34.1755 32.5156C34.3083 32.7168 34.3748 32.9453 34.3748 33.2012H33.4958C33.4958 33.0059 33.4343 32.8545 33.3113 32.7471C33.1882 32.6377 33.0154 32.583 32.7927 32.583C32.5779 32.583 32.4109 32.6289 32.2917 32.7207C32.1726 32.8105 32.113 32.9297 32.113 33.0781C32.113 33.2168 32.1824 33.333 32.321 33.4268C32.4617 33.5205 32.6677 33.6084 32.9392 33.6904C33.4392 33.8408 33.8035 34.0273 34.032 34.25C34.2605 34.4727 34.3748 34.75 34.3748 35.082C34.3748 35.4512 34.2351 35.7412 33.9558 35.9521C33.6765 36.1611 33.3005 36.2656 32.8279 36.2656C32.4998 36.2656 32.2009 36.2061 31.9314 36.0869C31.6619 35.9658 31.4558 35.8008 31.3132 35.5918C31.1726 35.3828 31.1023 35.1406 31.1023 34.8652H31.9841C31.9841 35.3359 32.2654 35.5713 32.8279 35.5713C33.0369 35.5713 33.2 35.5293 33.3171 35.4453C33.4343 35.3594 33.4929 35.2402 33.4929 35.0879ZM38.1833 32.6533H36.8767V36.207H35.9978V32.6533H34.7087V31.9414H38.1833V32.6533ZM41.2537 34.3584H39.5662V35.501H41.5466V36.207H38.6873V31.9414H41.5408V32.6533H39.5662V33.6699H41.2537V34.3584ZM43.6414 34.6455H42.9412V36.207H42.0623V31.9414H43.6472C44.1511 31.9414 44.5398 32.0537 44.8132 32.2783C45.0867 32.5029 45.2234 32.8203 45.2234 33.2305C45.2234 33.5215 45.1599 33.7646 45.033 33.96C44.908 34.1533 44.7175 34.3076 44.4617 34.4229L45.3845 36.166V36.207H44.4412L43.6414 34.6455ZM42.9412 33.9336H43.6501C43.8708 33.9336 44.0417 33.8779 44.1628 33.7666C44.2839 33.6533 44.3445 33.498 44.3445 33.3008C44.3445 33.0996 44.2869 32.9414 44.1716 32.8262C44.0583 32.7109 43.8835 32.6533 43.6472 32.6533H42.9412V33.9336ZM48.2673 34.7041V36.207H47.3884V31.9414H49.0525C49.3728 31.9414 49.6541 32 49.8962 32.1172C50.1404 32.2344 50.3279 32.4014 50.4587 32.6182C50.5896 32.833 50.655 33.0781 50.655 33.3535C50.655 33.7715 50.5115 34.1016 50.2244 34.3438C49.9392 34.584 49.5437 34.7041 49.0378 34.7041H48.2673ZM48.2673 33.9922H49.0525C49.2849 33.9922 49.4617 33.9375 49.5828 33.8281C49.7058 33.7188 49.7673 33.5625 49.7673 33.3594C49.7673 33.1504 49.7058 32.9814 49.5828 32.8525C49.4597 32.7236 49.2898 32.6572 49.073 32.6533H48.2673V33.9922ZM53.8279 34.3584H52.1404V35.501H54.1208V36.207H51.2615V31.9414H54.115V32.6533H52.1404V33.6699H53.8279V34.3584ZM57.906 32.6533H56.5994V36.207H55.7205V32.6533H54.4314V31.9414H57.906V32.6533ZM60.9763 34.3584H59.2888V35.501H61.2693V36.207H58.4099V31.9414H61.2634V32.6533H59.2888V33.6699H60.9763V34.3584ZM63.364 34.6455H62.6638V36.207H61.7849V31.9414H63.3699C63.8738 31.9414 64.2625 32.0537 64.5359 32.2783C64.8093 32.5029 64.946 32.8203 64.946 33.2305C64.946 33.5215 64.8826 33.7646 64.7556 33.96C64.6306 34.1533 64.4402 34.3076 64.1843 34.4229L65.1072 36.166V36.207H64.1638L63.364 34.6455ZM62.6638 33.9336H63.3728C63.5935 33.9336 63.7644 33.8779 63.8855 33.7666C64.0066 33.6533 64.0671 33.498 64.0671 33.3008C64.0671 33.0996 64.0095 32.9414 63.8943 32.8262C63.781 32.7109 63.6062 32.6533 63.3699 32.6533H62.6638V33.9336ZM67.8289 35.0879C67.8289 34.9219 67.7703 34.7949 67.6531 34.707C67.5359 34.6172 67.325 34.5234 67.0203 34.4258C66.7156 34.3262 66.4744 34.2285 66.2966 34.1328C65.8123 33.8711 65.5701 33.5186 65.5701 33.0752C65.5701 32.8447 65.6345 32.6396 65.7634 32.46C65.8943 32.2783 66.0808 32.1367 66.323 32.0352C66.5671 31.9336 66.8406 31.8828 67.1433 31.8828C67.448 31.8828 67.7195 31.9385 67.9578 32.0498C68.196 32.1592 68.3806 32.3145 68.5115 32.5156C68.6443 32.7168 68.7107 32.9453 68.7107 33.2012H67.8318C67.8318 33.0059 67.7703 32.8545 67.6472 32.7471C67.5242 32.6377 67.3513 32.583 67.1287 32.583C66.9138 32.583 66.7468 32.6289 66.6277 32.7207C66.5085 32.8105 66.449 32.9297 66.449 33.0781C66.449 33.2168 66.5183 33.333 66.657 33.4268C66.7976 33.5205 67.0037 33.6084 67.2751 33.6904C67.7751 33.8408 68.1394 34.0273 68.3679 34.25C68.5964 34.4727 68.7107 34.75 68.7107 35.082C68.7107 35.4512 68.571 35.7412 68.2917 35.9521C68.0125 36.1611 67.6365 36.2656 67.1638 36.2656C66.8357 36.2656 66.5369 36.2061 66.2673 36.0869C65.9978 35.9658 65.7917 35.8008 65.6492 35.5918C65.5085 35.3828 65.4382 35.1406 65.4382 34.8652H66.3201C66.3201 35.3359 66.6013 35.5713 67.1638 35.5713C67.3728 35.5713 67.5359 35.5293 67.6531 35.4453C67.7703 35.3594 67.8289 35.2402 67.8289 35.0879Z" fill="#2196F3"/>
</svg>
